<?xml version="1.0" encoding="utf-8"?>
<!-- Generator: Adobe Illustrator 18.0.0, SVG Export Plug-In . SVG Version: 6.00 Build 0)  -->
<!DOCTYPE svg PUBLIC "-//W3C//DTD SVG 1.1//EN" "http://www.w3.org/Graphics/SVG/1.1/DTD/svg11.dtd">
<svg version="1.1" id="Calque_1" xmlns="http://www.w3.org/2000/svg" xmlns:xlink="http://www.w3.org/1999/xlink" x="0px" y="0px"
	 viewBox="0 0 1920 1080" enable-background="new 0 0 1920 1080" xml:space="preserve">
<g id="Capa_1">
	<path fill="#CF4737" d="M791,761.8h24l0,0v87.4l0,0h-24c-10.8,0-19.6-8.8-19.6-19.6v-48.1C771.4,770.6,780.2,761.8,791,761.8z"/>
	<g id="Calque_2">
		<path fill="#E2E2E2" d="M1000.7,663.5h-43.7c-24.2,0-43.7,15.1-43.7,33.7v151.9h131.2V697.2
			C1044.5,678.7,1024.9,663.5,1000.7,663.5z"/>
		<rect x="913.4" y="827.1" fill="#5E7BBD" width="130.9" height="22.2"/>
		<rect x="913.4" y="782.7" fill="#5E7BBD" width="130.9" height="22.2"/>
		<rect x="913.4" y="738.4" fill="#5E7BBD" width="130.9" height="22.2"/>
		<rect x="913.4" y="694.7" fill="#5E7BBD" width="130.9" height="22.2"/>
		<path fill="#191D34" d="M1044.4,698.6h-13.2c0,0-0.6,9.3,0.9,16c1.5,6.5,11.1,11,11.1,11l1.1-0.9"/>
		<line fill="none" x1="1044.5" y1="724.7" x2="1044.4" y2="698.6"/>
		<g>
			<g>
				<path fill="#E2E2E2" d="M1043.4,705c1.4,0,2.4,0.8,2.4,1.5c0,0.8-1,1.5-2.4,1.5s-2.4-0.8-2.4-1.5S1042,705,1043.4,705
					 M1043.4,703.3c-2.3,0-4.2,1.5-4.2,3.3c0,1.8,1.9,3.3,4.2,3.3c2.3,0,4.2-1.5,4.2-3.3C1047.6,704.7,1045.7,703.3,1043.4,703.3
					L1043.4,703.3z"/>
			</g>
		</g>
		<path fill="#E2E2E2" d="M1044.3,710.8h-1.8c-0.6,0-1.1-0.5-1.1-1.1l0,0c0-0.6,0.5-1.1,1.1-1.1h1.8c0.6,0,1.1,0.5,1.1,1.1l0,0
			C1045.4,710.3,1044.9,710.8,1044.3,710.8z"/>
		<path fill="#E2E2E2" d="M1044.4,720.8c-0.5,0.5-0.9,0.6-1.5,0v-10.6h1.5V720.8z"/>
		<rect x="1041.6" y="716.4" fill="#E2E2E2" width="1.9" height="3.8"/>
		<rect x="1041.1" y="717" fill="#E2E2E2" width="0.9" height="0.9"/>
		<rect x="1041.1" y="718.4" fill="#E2E2E2" width="0.9" height="0.9"/>
	</g>
	<path fill="#FEC9A3" d="M1041.9,538.1l-98.8,12.6c-1,4.2-1.6,8.3-1.6,12.6v50.2c0,27.7,22.4,50.2,50.2,50.2
		c27.7,0,50.2-22.4,50.2-50.2v-50.2C1042.4,554.9,1042.4,546.4,1041.9,538.1z"/>
	<g>
		<path fill="#75462E" d="M940.8,550.7v50.2l50.2-50.2h37.6c20.8,0,27.7-22.3,26.4-40c-1.3-17.7-20.8-14.6-31.3-13
			c-10.4,1.6-45.3,15.5-45.3,15.5C957.7,513.1,940.8,530,940.8,550.7L940.8,550.7"/>
		<path fill="#75462E" d="M1044.5,849.3H913.4l6.3,58l-35.2,23l15.7,27.4l58.9-27.3c9.7-3.7,15.9-12,15.9-21.4v-25.7
			c0-6,5.5-11,12.2-11c4.4,0,8.4,2.1,10.7,5.5l54.8,87.4l28.2-12.7L1044.5,849.3z"/>
	</g>
	<g>
		<path fill="#3E8CC7" d="M881.3,982L859,942.1l25.8-11.6l22.9,41.2c1.9,3.3,1.9,7.2,0,10.3l0,0c-2.1,3.9-6.7,6.4-11.6,6.4h-3.5
			C887.9,988.4,883.4,985.9,881.3,982z"/>
		<path fill="#3E8CC7" d="M1104.7,970.9l-38.8,17.5l-13-23.2l38.8-17.4c7.2-3.1,15.9-0.6,19.4,5.8l0,0l0,0
			C1114.8,959.9,1111.9,967.7,1104.7,970.9L1104.7,970.9z"/>
	</g>
	<path fill="#FEC9A3" d="M1158.5,711.8c-6.8-9.1-19.8-11-28.8-4.2c-0.8,0.6-1.5,1.3-2.1,1.9l-41.4,41.4l-41.5-49.8v66.5l3.7,5.4
		c13.5,20.1,40.5,25.6,60.7,12.1c2.4-1.6,4.7-3.4,6.7-5.5l41-41C1163.7,731.5,1164.6,720,1158.5,711.8z"/>
	<g>
		<path fill="#75462E" d="M951,652.7h-81.4v21.9H951c15.7,0,28.6,12.8,28.6,28.6c0,4.3-1,8.6-2.9,12.5L908.1,857l-27.6,3.3v21.9
			l31.2-4.5c7.2-1,13.3-5.5,16.5-12.1l68.1-140.3c12.2-25,1.8-55.3-23.3-67.5C966.2,654.3,958.7,652.7,951,652.7z"/>
		<path fill="#75462E" d="M815.1,860.2c0,18.1,14.7,32.7,32.7,32.7h32.7c18.1,0,32.7-14.7,32.7-32.7v-11h-98.3
			C815.1,849.3,815.1,860.2,815.1,860.2z"/>
	</g>
	<path fill="#DE4C3C" d="M911.5,685.4c-4.7-13.1-17-21.9-31-21.9h-32.7c-18.1,0-32.7,14.7-32.7,32.7v152.9h98.3V696.4L911.5,685.4z"
		/>
	
		<rect x="1141.2" y="681.8" transform="matrix(0.974 -0.2265 0.2265 0.974 -158.8695 281.6855)" fill="#75462E" width="13.7" height="302.7"/>
	<path fill="#3E8CC7" d="M864.3,565.2c-27.2,0-49.2,22-49.2,49.2c0,27.2,22,49.2,49.2,49.2c27.2,0,49.2-22,49.2-49.2
		C913.4,587.2,891.3,565.2,864.3,565.2z M864.3,630.8c-9.1,0-16.4-7.3-16.4-16.4c0-9.1,7.3-16.4,16.4-16.4c9.1,0,16.4,7.3,16.4,16.4
		S873.2,630.8,864.3,630.8z"/>
	<path fill="#FEC9A3" d="M972.5,717.8L918,751l63.9,45.9c10.8,7.2,13.7,21.8,6.4,32.6c-0.3,0.4-0.5,0.6-0.8,1l0,0
		c-7.4,9.9-21.4,12.3-31.7,5.5l-78.7-55.8c-9.8-6.5-15.6-17.5-15.6-29.2l0,0c0-11.7,5.9-22.7,15.6-29.2l69.2-43
		c10.3-6.9,24.3-4.5,31.7,5.5l0,0c7.8,10.4,5.5,25-4.8,32.9C973.2,717.3,972.9,717.5,972.5,717.8z"/>
</g>
</svg>
