<?xml version="1.0" encoding="utf-8"?>
<!-- Generator: Adobe Illustrator 18.0.0, SVG Export Plug-In . SVG Version: 6.00 Build 0)  -->
<!DOCTYPE svg PUBLIC "-//W3C//DTD SVG 1.1//EN" "http://www.w3.org/Graphics/SVG/1.1/DTD/svg11.dtd">
<svg version="1.1" id="Calque_1" xmlns="http://www.w3.org/2000/svg" xmlns:xlink="http://www.w3.org/1999/xlink" x="0px" y="0px"
	 viewBox="21.6 101.1 858 858" enable-background="new 21.6 101.1 858 858" xml:space="preserve">
<g id="Calque_3">
	<path fill="#32CD32" d="M852,528.7c0,221.2-179.3,400.6-400.6,400.6S50.9,750,50.9,528.7l102.2-291.5l111.4,120.7l67.4-59.9
		l93.6,96.4L531.1,241l113.4,119.8l96.9-86.8L852,528.7z"/>
	<polygon fill="#32BF32" points="153.1,237.2 372.6,474.8 296.4,488.1 	"/>
	<polygon fill="#32BF32" points="331.9,298.1 407.3,422.8 425.5,394.4 	"/>
	<polygon fill="#32BF32" points="531.1,241 714.7,503.5 753.1,474.8 	"/>
	<polygon fill="#32BF32" points="741.4,274 815.8,483.9 822.5,461 	"/>
	<polygon fill="#DBDBDB" points="133.6,293 185.5,294 194.6,281.8 153.1,237.2 	"/>
	<polygon fill="#CCCCCC" points="153.1,237.2 185.5,294 194.6,281.8 	"/>
	<polygon fill="#DBDBDB" points="308.3,319 344.5,319 348.7,315.4 331.9,298.1 	"/>
	<polygon fill="#CCCCCC" points="331.9,298.1 344.5,319 348.7,315.4 	"/>
	<polygon fill="#DBDBDB" points="531.1,241 510.7,270.5 551.7,270.5 555,266.3 	"/>
	<polygon fill="#CCCCCC" points="531.1,241 551.7,270.5 555,266.3 	"/>
	<polygon fill="#DBDBDB" points="741.4,274 720.8,292.4 748.4,293.9 749.2,292 	"/>
	<polygon fill="#CCCCCC" points="741.4,274 748.4,293.9 749.2,292 	"/>
	<g id="Calque_6">
		<g id="Calque_5">
			<polygon fill="#6D4721" points="410.9,580.5 401.9,626.5 432.4,626.5 422.6,580.5 			"/>
			<polygon fill="#6D4721" points="366.4,576.6 360.2,622.6 380.9,622.6 374.3,576.6 			"/>
			<polygon fill="#6D4311" points="460.5,595.4 451.4,618.4 481.9,618.4 472.2,595.4 			"/>
			<polygon fill="#6D4721" points="519.6,588.9 513.5,634.9 534.2,634.9 527.6,588.9 			"/>
			<polygon fill="#6D4311" points="571.6,561.7 556.6,617.5 607.2,617.5 591,561.7 			"/>
			<polygon fill="#6D4721" points="652.1,597 645.9,642.9 666.7,642.9 660,597 			"/>
			<polygon fill="#75430D" points="718.9,603.5 709.8,649.5 740.4,649.5 730.5,603.5 			"/>
			<polygon fill="#6D4311" points="796.4,595.4 787.4,618.4 817.9,618.4 808.1,595.4 			"/>
			<polygon fill="#6D4311" points="261.8,569 252.7,592 283.2,592 273.5,569 			"/>
			<polygon fill="#6D4311" points="759.7,551.1 744.7,606.9 795.3,606.9 779.1,551.1 			"/>
			<polygon fill="#6D4721" points="514.2,542 508.1,588 528.8,588 522.1,542 			"/>
			<polygon fill="#75430D" points="218.6,553.6 209.5,599.6 240.1,599.6 230.2,553.6 			"/>
			<polygon fill="#6D4311" points="151.7,514.1 136.7,569.9 187.3,569.9 171,514.1 			"/>
			<polygon fill="#75430D" points="440.8,519 431.7,565 462.2,565 452.5,519 			"/>
			<polygon fill="#6D4311" points="650.1,537.9 641,560.8 671.6,560.8 661.8,537.9 			"/>
			<polygon fill="#6D4721" points="302.1,530.6 293.1,576.6 323.6,576.6 313.8,530.6 			"/>
			<polygon fill="#75430D" points="158.6,566.6 149.6,612.6 180.1,612.6 170.3,566.6 			"/>
			<polygon fill="#6D4721" points="226.6,592.9 220.5,638.9 241.1,638.9 234.5,592.9 			"/>
			<polygon fill="#6D4311" points="302.1,580.5 293.1,603.5 323.6,603.5 313.8,580.5 			"/>
			<polygon fill="#6D4311" points="91.2,565 76.2,620.8 126.8,620.8 110.5,565 			"/>
		</g>
		<g id="Calque_4">
			<ellipse fill="#279627" cx="224.8" cy="504.2" rx="50.9" ry="60.1"/>
			<ellipse fill="#39A839" cx="162" cy="491.1" rx="43.5" ry="42.8"/>
			<ellipse fill="#39A839" cx="268" cy="528.7" rx="46.6" ry="49.1"/>
			<ellipse fill="#2F892F" cx="308.3" cy="498.1" rx="50.7" ry="50.3"/>
			<ellipse fill="#129312" cx="308.3" cy="533.9" rx="54.7" ry="59.1"/>
			<ellipse fill="#2F892F" cx="230.8" cy="547.9" rx="44.9" ry="55.6"/>
			<ellipse fill="#2F892F" cx="104" cy="519.7" rx="58" ry="66.6"/>
			<ellipse fill="#129312" cx="164.8" cy="538" rx="51" ry="58.4"/>
			<ellipse fill="#279627" cx="719.1" cy="519.7" rx="50.9" ry="60.1"/>
			<ellipse fill="#39A839" cx="656.3" cy="506.6" rx="43.5" ry="42.8"/>
			<ellipse fill="#129312" cx="770" cy="528.7" rx="50.7" ry="50.3"/>
			<ellipse fill="#279627" cx="785.9" cy="507.8" rx="50.9" ry="60.1"/>
			<ellipse fill="#39A839" cx="802.6" cy="538" rx="54.7" ry="59.1"/>
			<ellipse fill="#2F892F" cx="725.1" cy="563.4" rx="44.9" ry="55.6"/>
			<ellipse fill="#2F892F" cx="581.9" cy="530.4" rx="58" ry="66.6"/>
			<ellipse fill="#129312" cx="659.1" cy="553.5" rx="51" ry="58.4"/>
			<ellipse fill="#39A839" cx="447" cy="499.2" rx="43.5" ry="42.8"/>
			<ellipse fill="#129312" cx="463.7" cy="542" rx="54.7" ry="59.1"/>
			<ellipse fill="#2F892F" cx="372.6" cy="523" rx="58" ry="66.6"/>
			<ellipse fill="#39A839" cx="518.4" cy="507.8" rx="46.6" ry="49.1"/>
			<ellipse fill="#279627" cx="523.9" cy="553.5" rx="44.9" ry="55.6"/>
			<ellipse fill="#39A839" cx="417.1" cy="548.4" rx="46.6" ry="49.1"/>
		</g>
	</g>
	<g id="Calque_7">
		<path fill="#D3B948" d="M81.5,682.7c0,0,186.7,20.4,233,25.3s163.1-20.3,235.7-12.5s189.6,34.7,212.1,34.7s40.2-8.7,40.2-8.7
			c-25.9,48-62.2,89.6-108.1,125.6c0,0-127.7-10.9-185.4-13.7c-57.7-2.8-124.8,2.8-185.5-0.9c-60.7-3.7-165.9-31.4-165.9-31.4
			C121.6,760.5,96.4,721,81.5,682.7z"/>
	</g>
</g>
<g id="Capa_1">
	<path fill="#CF4737" d="M299.2,626h19.1l0,0v69.4l0,0h-19.1c-8.6,0-15.6-7-15.6-15.6v-38.2C283.6,633,290.6,626,299.2,626z"/>
	<g id="Calque_2">
		<path fill="#E2E2E2" d="M465.8,547.9h-34.7c-19.2,0-34.7,12-34.7,26.8v120.7h104.2V574.7C500.6,560,485,547.9,465.8,547.9z"/>
		<rect x="396.4" y="677.9" fill="#5E7BBD" width="104" height="17.6"/>
		<rect x="396.4" y="642.6" fill="#5E7BBD" width="104" height="17.6"/>
		<rect x="396.4" y="607.4" fill="#5E7BBD" width="104" height="17.6"/>
		<rect x="396.4" y="572.7" fill="#5E7BBD" width="104" height="17.6"/>
		<path fill="#191D34" d="M500.5,575.8H490c0,0-0.5,7.4,0.7,12.7c1.2,5.2,8.8,8.7,8.8,8.7l0.9-0.7"/>
		<line fill="none" x1="500.6" y1="596.5" x2="500.5" y2="575.8"/>
		<g>
			<g>
				<path fill="#E2E2E2" d="M499.7,580.9c1.1,0,1.9,0.6,1.9,1.2c0,0.6-0.8,1.2-1.9,1.2c-1.1,0-1.9-0.6-1.9-1.2
					C497.8,581.5,498.6,580.9,499.7,580.9 M499.7,579.5c-1.8,0-3.3,1.2-3.3,2.6c0,1.4,1.5,2.6,3.3,2.6s3.3-1.2,3.3-2.6
					C503,580.6,501.5,579.5,499.7,579.5L499.7,579.5z"/>
			</g>
		</g>
		<path fill="#E2E2E2" d="M500.4,585.5H499c-0.5,0-0.9-0.4-0.9-0.9l0,0c0-0.5,0.4-0.9,0.9-0.9h1.4c0.5,0,0.9,0.4,0.9,0.9l0,0
			C501.3,585.1,500.9,585.5,500.4,585.5z"/>
		<path fill="#E2E2E2" d="M500.5,593.4c-0.4,0.4-0.7,0.5-1.2,0V585h1.2V593.4z"/>
		<rect x="498.3" y="589.9" fill="#E2E2E2" width="1.5" height="3"/>
		<rect x="497.9" y="590.4" fill="#E2E2E2" width="0.7" height="0.7"/>
		<rect x="497.9" y="591.5" fill="#E2E2E2" width="0.7" height="0.7"/>
	</g>
	<path fill="#FEC9A3" d="M498.5,448.3l-78.5,10c-0.8,3.3-1.3,6.6-1.3,10v39.9c0,22,17.8,39.9,39.9,39.9c22,0,39.9-17.8,39.9-39.9
		v-39.9C498.9,461.6,498.9,454.9,498.5,448.3z"/>
	<g>
		<path fill="#75462E" d="M418.2,458.3v39.9l39.9-39.9H488c16.5,0,22-17.7,21-31.8c-1-14.1-16.5-11.6-24.9-10.3
			c-8.3,1.3-36,12.3-36,12.3C431.6,428.4,418.2,441.8,418.2,458.3L418.2,458.3"/>
		<path fill="#75462E" d="M500.6,695.5H396.4l5,46.1l-28,18.3l12.5,21.8l46.8-21.7c7.7-2.9,12.6-9.5,12.6-17v-20.4
			c0-4.8,4.4-8.7,9.7-8.7c3.5,0,6.7,1.7,8.5,4.4l43.5,69.4l22.4-10.1L500.6,695.5z"/>
	</g>
	<g>
		<path fill="#3E8CC7" d="M370.9,800.9l-17.7-31.7l20.5-9.2l18.2,32.7c1.5,2.6,1.5,5.7,0,8.2l0,0c-1.7,3.1-5.3,5.1-9.2,5.1h-2.8
			C376.2,806,372.6,804,370.9,800.9z"/>
		<path fill="#3E8CC7" d="M548.4,792.1L517.6,806l-10.3-18.4l30.8-13.8c5.7-2.5,12.6-0.5,15.4,4.6l0,0l0,0
			C556.4,783.4,554.1,789.6,548.4,792.1L548.4,792.1z"/>
	</g>
	<path fill="#FEC9A3" d="M591.1,586.3c-5.4-7.2-15.7-8.7-22.9-3.3c-0.6,0.5-1.2,1-1.7,1.5l-32.9,32.9l-33-39.6v52.8l2.9,4.3
		c10.7,16,32.2,20.3,48.2,9.6c1.9-1.3,3.7-2.7,5.3-4.4l32.6-32.6C595.3,601.9,596,592.8,591.1,586.3z"/>
	<g>
		<path fill="#75462E" d="M426.3,539.3h-64.7v17.4h64.7c12.5,0,22.7,10.2,22.7,22.7c0,3.4-0.8,6.8-2.3,9.9l-54.5,112.3l-21.9,2.6
			v17.4l24.8-3.6c5.7-0.8,10.6-4.4,13.1-9.6l54.1-111.5c9.7-19.9,1.4-43.9-18.5-53.6C438.4,540.6,432.4,539.3,426.3,539.3z"/>
		<path fill="#75462E" d="M318.3,704.2c0,14.4,11.7,26,26,26h26c14.4,0,26-11.7,26-26v-8.7h-78.1
			C318.3,695.5,318.3,704.2,318.3,704.2z"/>
	</g>
	<path fill="#DE4C3C" d="M394.9,565.3c-3.7-10.4-13.5-17.4-24.6-17.4h-26c-14.4,0-26,11.7-26,26v121.5h78.1V574L394.9,565.3z"/>
	
		<rect x="577.4" y="562.4" transform="matrix(-0.974 0.2265 -0.2265 -0.974 1305.1401 1215.5438)" fill="#75462E" width="10.9" height="240.5"/>
	<path fill="#3E8CC7" d="M357.4,469.8c-21.6,0-39.1,17.5-39.1,39.1c0,21.6,17.5,39.1,39.1,39.1c21.6,0,39.1-17.5,39.1-39.1
		C396.4,487.3,378.9,469.8,357.4,469.8z M357.4,521.9c-7.2,0-13-5.8-13-13c0-7.2,5.8-13,13-13c7.2,0,13,5.8,13,13
		C370.4,516.1,364.5,521.9,357.4,521.9z"/>
	<path fill="#FEC9A3" d="M443.4,591l-43.3,26.4l50.8,36.5c8.6,5.7,10.9,17.3,5.1,25.9c-0.2,0.3-0.4,0.5-0.6,0.8l0,0
		c-5.9,7.9-17,9.8-25.2,4.4l-62.5-44.3c-7.8-5.2-12.4-13.9-12.4-23.2l0,0c0-9.3,4.7-18,12.4-23.2l55-34.2c8.2-5.5,19.3-3.6,25.2,4.4
		l0,0c6.2,8.3,4.4,19.9-3.8,26.1C443.9,590.6,443.7,590.8,443.4,591z"/>
</g>
</svg>
