<?xml version="1.0" encoding="utf-8"?>
<!-- Generator: Adobe Illustrator 18.0.0, SVG Export Plug-In . SVG Version: 6.00 Build 0)  -->
<!DOCTYPE svg PUBLIC "-//W3C//DTD SVG 1.1//EN" "http://www.w3.org/Graphics/SVG/1.1/DTD/svg11.dtd">
<svg version="1.1" xmlns="http://www.w3.org/2000/svg" xmlns:xlink="http://www.w3.org/1999/xlink" x="0px" y="0px"
	 viewBox="-228 -694 2148 2308" enable-background="new -228 -694 2148 2308" xml:space="preserve">
<g id="Calque_3">
	<path fill="#32CD32" d="M1717.5,293c0,472.8-383.2,856-856,856S5.5,765.8,5.5,293L224-330L462-72l144-128L806,6l225.7-328L1274-66
		l207.1-185.4L1717.5,293z"/>
	<polygon fill="#32BF32" points="224,-330 693,177.8 530.1,206.1 	"/>
	<polygon fill="#32BF32" points="606,-200 767.1,66.6 806,6 	"/>
	<polygon fill="#32BF32" points="1031.7,-322 1424.1,239.1 1506.1,177.8 	"/>
	<polygon fill="#32BF32" points="1481.1,-251.4 1640.1,197.1 1654.6,148.2 	"/>
	<polygon fill="#DBDBDB" points="182.2,-210.8 293.3,-208.7 312.7,-234.7 224,-330 	"/>
	<polygon fill="#CCCCCC" points="224,-330 293.3,-208.7 312.7,-234.7 	"/>
	<polygon fill="#DBDBDB" points="555.7,-155.3 633,-155.3 642,-163 606,-200 	"/>
	<polygon fill="#CCCCCC" points="606,-200 633,-155.3 642,-163 	"/>
	<polygon fill="#DBDBDB" points="1031.7,-322 988.2,-258.9 1075.8,-258.9 1082.9,-267.9 	"/>
	<polygon fill="#CCCCCC" points="1031.7,-322 1075.8,-258.9 1082.9,-267.9 	"/>
	<polygon fill="#DBDBDB" points="1481.1,-251.4 1437.1,-212 1496.1,-208.9 1497.8,-212.9 	"/>
	<polygon fill="#CCCCCC" points="1481.1,-251.4 1496.1,-208.9 1497.8,-212.9 	"/>
	<g id="Calque_6">
		<g id="Calque_5">
			<polygon fill="#6D4721" points="774.9,403.7 755.6,501.9 820.8,501.9 799.9,403.7 			"/>
			<polygon fill="#6D4721" points="679.7,395.3 666.6,493.5 710.8,493.5 696.6,395.3 			"/>
			<polygon fill="#6D4311" points="880.8,435.4 861.5,484.6 926.7,484.6 905.8,435.4 			"/>
			<polygon fill="#6D4721" points="1007.3,421.6 994.2,519.9 1038.5,519.9 1024.3,421.6 			"/>
			<polygon fill="#6D4311" points="1118.3,363.4 1086.3,482.7 1194.3,482.7 1159.7,363.4 			"/>
			<polygon fill="#6D4721" points="1290.3,438.8 1277.2,537 1321.5,537 1307.3,438.8 			"/>
			<polygon fill="#75430D" points="1433.1,452.8 1413.7,551.1 1479,551.1 1458,452.8 			"/>
			<polygon fill="#6D4311" points="1598.7,435.4 1579.4,484.6 1644.7,484.6 1623.7,435.4 			"/>
			<polygon fill="#6D4311" points="456.2,379.1 436.9,428.2 502.1,428.2 481.2,379.1 			"/>
			<polygon fill="#6D4311" points="1520.3,340.7 1488.3,460.1 1596.3,460.1 1561.7,340.7 			"/>
			<polygon fill="#6D4721" points="995.7,321.4 982.6,419.6 1026.8,419.6 1012.6,321.4 			"/>
			<polygon fill="#75430D" points="363.9,346.2 344.5,444.4 409.8,444.4 388.8,346.2 			"/>
			<polygon fill="#6D4311" points="221,261.7 189,381 297,381 262.3,261.7 			"/>
			<polygon fill="#75430D" points="838.7,272.2 819.4,370.5 884.6,370.5 863.7,272.2 			"/>
			<polygon fill="#6D4311" points="1286.1,312.5 1266.7,361.6 1332,361.6 1311,312.5 			"/>
			<polygon fill="#6D4721" points="542.4,297 523.1,395.3 588.3,395.3 567.4,297 			"/>
			<polygon fill="#75430D" points="235.7,373.9 216.4,472.2 281.6,472.2 260.7,373.9 			"/>
			<polygon fill="#6D4721" points="381,430.2 367.9,528.4 412.1,528.4 397.9,430.2 			"/>
			<polygon fill="#6D4311" points="542.4,403.7 523.1,452.8 588.3,452.8 567.4,403.7 			"/>
			<polygon fill="#6D4311" points="91.7,370.5 59.7,489.8 167.7,489.8 133,370.5 			"/>
		</g>
		<g id="Calque_4">
			<ellipse fill="#279627" cx="377.2" cy="240.5" rx="108.8" ry="128.5"/>
			<ellipse fill="#39A839" cx="243" cy="212.5" rx="93" ry="91.5"/>
			<ellipse fill="#39A839" cx="469.5" cy="293" rx="99.5" ry="105"/>
			<ellipse fill="#2F892F" cx="555.7" cy="227.5" rx="108.3" ry="107.5"/>
			<ellipse fill="#129312" cx="555.7" cy="304" rx="117" ry="126.2"/>
			<ellipse fill="#2F892F" cx="390" cy="334" rx="96" ry="118.8"/>
			<ellipse fill="#2F892F" cx="119" cy="273.6" rx="124" ry="142.3"/>
			<ellipse fill="#129312" cx="249" cy="312.8" rx="109" ry="124.8"/>
			<ellipse fill="#279627" cx="1433.5" cy="273.6" rx="108.8" ry="128.5"/>
			<ellipse fill="#39A839" cx="1299.3" cy="245.6" rx="93" ry="91.5"/>
			<ellipse fill="#129312" cx="1542.3" cy="293" rx="108.3" ry="107.5"/>
			<ellipse fill="#279627" cx="1576.3" cy="248.3" rx="108.8" ry="128.5"/>
			<ellipse fill="#39A839" cx="1612" cy="312.8" rx="117" ry="126.2"/>
			<ellipse fill="#2F892F" cx="1446.3" cy="367.1" rx="96" ry="118.8"/>
			<ellipse fill="#2F892F" cx="1140.3" cy="296.5" rx="124" ry="142.3"/>
			<ellipse fill="#129312" cx="1305.3" cy="345.9" rx="109" ry="124.8"/>
			<ellipse fill="#39A839" cx="852" cy="229.9" rx="93" ry="91.5"/>
			<ellipse fill="#129312" cx="887.7" cy="321.3" rx="117" ry="126.2"/>
			<ellipse fill="#2F892F" cx="693" cy="280.7" rx="124" ry="142.3"/>
			<ellipse fill="#39A839" cx="1004.7" cy="248.3" rx="99.5" ry="105"/>
			<ellipse fill="#279627" cx="1016.3" cy="345.9" rx="96" ry="118.8"/>
			<ellipse fill="#39A839" cx="788.2" cy="335" rx="99.5" ry="105"/>
		</g>
	</g>
	<g id="Calque_7">
		<path fill="#D3B948" d="M71,622c0,0,399,43.6,498,54s348.6-43.3,503.8-26.7s405.2,74.2,453.2,74.2s86-18.6,86-18.6
			c-55.3,102.5-133,191.5-231,268.5c0,0-272.9-23.3-396.2-29.3s-266.7,6-396.5-2s-354.6-67.1-354.6-67.1
			C156.7,788.2,102.9,703.9,71,622z"/>
	</g>
</g>
<g id="Capa_1">
	<path fill="#CF4737" d="M536.2,500.9H577l0,0v148.4l0,0h-40.8c-18.4,0-33.4-15-33.4-33.4v-81.6
		C502.8,515.9,517.8,500.9,536.2,500.9z"/>
	<g id="Calque_2">
		<path fill="#E2E2E2" d="M892.3,334h-74.2c-41,0-74.2,25.7-74.2,57.3v258h222.6v-258C966.5,359.7,933.3,334,892.3,334z"/>
		<rect x="743.9" y="611.7" fill="#5E7BBD" width="222.3" height="37.7"/>
		<rect x="743.9" y="536.4" fill="#5E7BBD" width="222.3" height="37.7"/>
		<rect x="744" y="461" fill="#5E7BBD" width="222.3" height="37.7"/>
		<rect x="744" y="386.9" fill="#5E7BBD" width="222.3" height="37.7"/>
		<path fill="#191D34" d="M966.4,393.6H944c0,0-1,15.9,1.6,27.1c2.6,11.2,18.9,18.5,18.9,18.5l2-1.5"/>
		<line fill="#E2E2E2" x1="966.5" y1="437.7" x2="966.4" y2="393.6"/>
		<g>
			<g>
				<path fill="#E2E2E2" d="M964.7,404.4c2.3,0,4.1,1.3,4.1,2.5s-1.7,2.5-4.1,2.5c-2.3,0-4.1-1.3-4.1-2.5S962.3,404.4,964.7,404.4
					 M964.7,401.4c-3.9,0-7.1,2.5-7.1,5.5c0,3,3.2,5.5,7.1,5.5c3.9,0,7.1-2.5,7.1-5.5C971.8,403.9,968.6,401.4,964.7,401.4
					L964.7,401.4z"/>
			</g>
		</g>
		<path fill="#E2E2E2" d="M966.2,414.3h-3c-1,0-1.9-0.9-1.9-1.9l0,0c0-1,0.9-1.9,1.9-1.9h3c1,0,1.9,0.9,1.9,1.9l0,0
			C968.1,413.4,967.2,414.3,966.2,414.3z"/>
		<path fill="#E2E2E2" d="M966.4,431.1c-0.8,0.9-1.6,1-2.6,0v-17.9h2.6V431.1z"/>
		<rect x="961.6" y="423.6" fill="#E2E2E2" width="3.1" height="6.4"/>
		<rect x="960.9" y="424.8" fill="#E2E2E2" width="1.4" height="1.4"/>
		<rect x="960.9" y="427.2" fill="#E2E2E2" width="1.4" height="1.4"/>
	</g>
	<path fill="#FEC9A3" d="M962.1,121.1l-167.7,21.3c-1.8,7-2.7,14.1-2.7,21.3v85.2c0,47,38.1,85.2,85.2,85.2
		c47,0,85.2-38.1,85.2-85.2v-85.2C963,149.5,963,135.2,962.1,121.1z"/>
	<g>
		<path fill="#75462E" d="M790.6,142.4v85.2l85.2-85.2h63.9c35.3,0,47-37.9,44.9-68c-2.1-30.1-35.3-24.8-53.2-22
			c-17.8,2.8-76.9,26.2-76.9,26.2C819.2,78.5,790.6,107.1,790.6,142.4L790.6,142.4"/>
		<path fill="#75462E" d="M966.5,649.3H743.9l10.7,98.6l-59.9,39.2l26.7,46.6l100-46.3c16.4-6.1,27-20.4,27-36.3v-43.7
			c0-10.3,9.3-18.6,20.8-18.6c7.5,0,14.4,3.6,18.1,9.5l92.9,148.3l47.8-21.5L966.5,649.3z"/>
	</g>
	<g>
		<path fill="#3E8CC7" d="M689.4,874.6l-37.8-67.8l43.9-19.7l39,69.9c3.1,5.5,3.1,12.1,0,17.6l0,0c-3.7,6.7-11.3,10.9-19.6,10.9H709
			C700.7,885.5,693.1,881.3,689.4,874.6z"/>
		<path fill="#3E8CC7" d="M1068.8,855.9l-65.9,29.5l-22-39.4l65.9-29.5c12.1-5.4,26.9-1,32.9,9.8l0,0l0,0
			C1085.8,837.3,1080.9,850.5,1068.8,855.9L1068.8,855.9z"/>
	</g>
	<path fill="#FEC9A3" d="M1160,416c-11.6-15.4-33.5-18.6-48.9-7c-1.3,1-2.6,2.1-3.7,3.2l-70.3,70.3l-70.6-84.7v112.9l6.2,9.2
		c22.8,34.1,68.9,43.4,103.1,20.6c4.1-2.7,7.9-5.8,11.3-9.3l69.7-69.7C1169,449.4,1170.4,429.9,1160,416z"/>
	<g>
		<path fill="#75462E" d="M807.9,315.5H669.7v37.1h138.2c26.8,0,48.5,21.8,48.5,48.6c0,7.3-1.7,14.6-4.9,21.1L735,662.3l-46.7,5.6
			V705l52.9-7.6c12.2-1.8,22.7-9.4,28.1-20.5l115.7-238.3c20.7-42.5,2.9-93.8-39.6-114.5C833.6,318.4,820.9,315.5,807.9,315.5z"/>
		<path fill="#75462E" d="M577,667.9c0,30.7,24.9,55.6,55.6,55.6h55.6c30.7,0,55.6-24.9,55.6-55.6v-18.5H577
			C577,649.3,577,667.9,577,667.9z"/>
	</g>
	<path fill="#DE4C3C" d="M740.8,371.1c-7.9-22.2-28.9-37.1-52.5-37.1h-55.6c-30.7,0-55.6,24.9-55.6,55.6v259.7h166.9V389.7
		L740.8,371.1z"/>
	
		<rect x="1130.7" y="364.9" transform="matrix(0.974 -0.2265 0.2265 0.974 -111.1847 274.9085)" fill="#75462E" width="23.3" height="514"/>
	<path fill="#3E8CC7" d="M660.5,167.1c-46.1,0-83.5,37.4-83.5,83.5s37.4,83.5,83.5,83.5s83.5-37.4,83.5-83.5
		S706.5,167.1,660.5,167.1z M660.5,278.4c-15.4,0-27.8-12.5-27.8-27.8s12.5-27.8,27.8-27.8s27.8,12.5,27.8,27.8
		S675.8,278.4,660.5,278.4z"/>
	<path fill="#FEC9A3" d="M844.4,426l-92.5,56.4l108.5,78c18.3,12.2,23.2,37,11,55.3c-0.4,0.6-0.8,1.1-1.2,1.7l0,0
		c-12.7,16.9-36.3,20.9-53.9,9.3L682.7,532c-16.6-11.1-26.5-29.7-26.5-49.6l0,0c0-19.9,10-38.5,26.5-49.6l117.6-73.1
		c17.6-11.7,41.2-7.6,53.9,9.3l0,0c13.2,17.7,9.5,42.6-8.1,55.8C845.5,425.2,845,425.6,844.4,426z"/>
</g>
</svg>
